<svg width="40" height="41" viewBox="0 0 40 41" fill="none" xmlns="http://www.w3.org/2000/svg">
<g id="Phosphor Icons / UsersThree">
<rect y="0.5" width="40" height="40" rx="4" fill="#745F27"/>
<path id="Vector" d="M20 28.1923C23.1155 28.1923 25.641 25.6667 25.641 22.5513C25.641 19.4358 23.1155 16.9102 20 16.9102C16.8846 16.9102 14.359 19.4358 14.359 22.5513C14.359 25.6667 16.8846 28.1923 20 28.1923Z" stroke="#F0B11C" stroke-width="1.5" stroke-linecap="round" stroke-linejoin="round"/>
<path id="Vector_2" d="M29.7436 18.9616C30.9381 18.9596 32.1166 19.2367 33.1851 19.7709C34.2535 20.3052 35.1823 21.0816 35.8974 22.0385" stroke="#F0B11C" stroke-width="1.5" stroke-linecap="round" stroke-linejoin="round"/>
<path id="Vector_3" d="M4.10257 22.0385C4.8177 21.0816 5.74652 20.3052 6.81495 19.7709C7.88339 19.2367 9.06187 18.9596 10.2564 18.9616" stroke="#F0B11C" stroke-width="1.5" stroke-linecap="round" stroke-linejoin="round"/>
<path id="Vector_4" d="M12.3077 32.2949C13.0112 31.0645 14.1053 30.0276 15.4653 29.3022C16.8253 28.5769 18.3965 28.1923 20 28.1923C21.6034 28.1923 23.1747 28.5769 24.5346 29.3022C25.8946 30.0276 26.9887 31.0645 27.6923 32.2949" stroke="#F0B11C" stroke-width="1.5" stroke-linecap="round" stroke-linejoin="round"/>
<path id="Vector_5" d="M10.8152 18.9615C9.93141 18.9624 9.06557 18.714 8.3189 18.2453C7.57222 17.7766 6.97555 17.1069 6.5986 16.3146C6.22165 15.5223 6.07999 14.64 6.19017 13.7708C6.30034 12.9016 6.65781 12.0815 7.2208 11.4062C7.78379 10.7309 8.52905 10.2284 9.36951 9.95732C10.21 9.68624 11.1109 9.65782 11.967 9.87538C12.8232 10.0929 13.5992 10.5475 14.2043 11.1859C14.8095 11.8244 15.2189 12.6203 15.3846 13.4808" stroke="#F0B11C" stroke-width="1.5" stroke-linecap="round" stroke-linejoin="round"/>
<path id="Vector_6" d="M24.6154 13.4808C24.7811 12.6203 25.1905 11.8244 25.7956 11.1859C26.4008 10.5475 27.1768 10.0929 28.033 9.87538C28.8891 9.65782 29.79 9.68624 30.6305 9.95732C31.4709 10.2284 32.2162 10.7309 32.7792 11.4062C33.3422 12.0815 33.6997 12.9016 33.8098 13.7708C33.92 14.64 33.7783 15.5223 33.4014 16.3146C33.0244 17.1069 32.4278 17.7766 31.6811 18.2453C30.9344 18.714 30.0686 18.9624 29.1848 18.9615" stroke="#F0B11C" stroke-width="1.5" stroke-linecap="round" stroke-linejoin="round"/>
</g>
</svg>
