<svg width="20" height="20" viewBox="0 0 20 20" fill="none" xmlns="http://www.w3.org/2000/svg">
<path d="M17.2727 2H2.72727C2.32561 2 2 2.32561 2 2.72727V17.2727C2 17.6744 2.32561 18 2.72727 18H17.2727C17.6744 18 18 17.6744 18 17.2727V2.72727C18 2.32561 17.6744 2 17.2727 2Z" stroke="#F0B11C" stroke-linecap="round" stroke-linejoin="round"/>
<path d="M14 1V4" stroke="#F0B11C" stroke-linecap="round" stroke-linejoin="round"/>
<path d="M6 1V4" stroke="#F0B11C" stroke-linecap="round" stroke-linejoin="round"/>
<path d="M2 7H18" stroke="#F0B11C" stroke-linecap="round" stroke-linejoin="round"/>
<path d="M7 10H8.99805L7.85631 11.5385C8.04421 11.5381 8.22928 11.5878 8.39512 11.683C8.56095 11.7783 8.70241 11.9161 8.80696 12.0844C8.9115 12.2528 8.9759 12.4463 8.99443 12.6478C9.01297 12.8494 8.98506 13.0528 8.9132 13.2399C8.84134 13.4271 8.72773 13.5922 8.58247 13.7207C8.43721 13.8492 8.26477 13.937 8.08047 13.9765C7.89616 14.0159 7.70567 14.0057 7.52591 13.9467C7.34614 13.8877 7.18266 13.7819 7.04995 13.6385" stroke="#F0B11C" stroke-linecap="round" stroke-linejoin="round"/>
<path d="M11 10.9231L13 10V14" stroke="#F0B11C" stroke-linecap="round" stroke-linejoin="round"/>
</svg>
